<svg data-name="Layer 1" xmlns="http://www.w3.org/2000/svg" viewBox="0 0 32.61 46.05"><path d="M16.25 0c.12 0 .13.06.14.14a36.59 36.59 0 008.37 14c3.48 3.91 7.5 7.61 7.83 14.45A17.23 17.23 0 0128 41.05a16.27 16.27 0 01-12 5 15.7 15.7 0 01-11.61-5.4A16.31 16.31 0 01.05 28.09c.57-8 6.56-11.87 10.4-16.88A37.49 37.49 0 0016.25 0zm-10 29.71A10.48 10.48 0 0011 38.35 10.25 10.25 0 0023.27 37a11.26 11.26 0 003.11-7.29c-4.2 0-5.16-.06-10-.06 0-3.33.05-6.87.05-10.2A10.11 10.11 0 006.26 29.71z" fill="#b5dadc"/></svg>