<svg xmlns="http://www.w3.org/2000/svg" viewBox="0 0 68 96"><g transform="translate(9 6)"><circle cx="25" cy="56" r="28" fill-rule="evenodd" clip-rule="evenodd" fill="#fff"/><path d="M25.2-5.7C29.2 6.8 35 15 42.6 23.6c7.3 8.1 15.6 15.9 16.3 30.1.5 11.2-4.4 20.3-9.6 25.9-5.7 6.3-15.1 10.6-25 10.4C14.2 89.8 6 85.3.1 78.7c-5.8-6.6-9.8-14.9-9-26.2 1.2-16.6 13.7-24.7 21.7-35.2C18 10.6 21.6 3.5 24.9-6c.2 0 .3.1.3.3zm0 40.2c-12.2 0-21.3 10-21.1 21.4.1 7.6 4.2 14.5 9.9 18 8 4.9 19.1 3.7 25.6-2.8 3.5-3.4 5.8-8.2 6.5-15.2-8.8 0-10.8-.1-20.9-.1-.1-6.9 0-14.3 0-21.3zM16 42c2.3 0 4.2 1.9 4.2 4.2 0 2.3-1.9 4.2-4.2 4.2s-4.2-1.9-4.2-4.2c.1-2.4 1.9-4.2 4.2-4.2zm19.6-1.1c-2.3 0-4.2 1.9-4.2 4.3s1.9 4.3 4.2 4.3 4.2-1.9 4.2-4.3-1.8-4.3-4.2-4.3z" fill="#19b4b2"/><path d="M37 62c0 3.3-4.9 6-11 6s-11-2.7-11-6" fill="none" stroke="#19b4b2" stroke-width="4"/></g></svg>