<svg width="84" height="108" xmlns="http://www.w3.org/2000/svg"><defs><filter x="-35.4%" y="-25.6%" width="170.8%" height="151.1%" filterUnits="objectBoundingBox" id="a"><feOffset dy="2" in="SourceAlpha" result="shadowOffsetOuter1"/><feGaussianBlur stdDeviation="5" in="shadowOffsetOuter1" result="shadowBlurOuter1"/><feColorMatrix values="0 0 0 0 0 0 0 0 0 0 0 0 0 0 0 0 0 0 0.15 0" in="shadowBlurOuter1" result="shadowMatrixOuter1"/><feMerge><feMergeNode in="shadowMatrixOuter1"/><feMergeNode in="SourceGraphic"/></feMerge></filter></defs><g filter="url(#a)" transform="translate(9 6)" fill="none" fill-rule="evenodd"><circle fill="#FFF" cx="33" cy="56" r="28"/><path d="M33.03.274c3.795 11.76 9.291 19.46 16.428 27.444 6.828 7.638 14.725 14.872 15.37 28.235.507 10.502-4.112 18.992-9.009 24.276-5.464 5.898-14.336 9.958-23.585 9.764-9.507-.2-17.29-4.376-22.79-10.554C3.966 73.286.201 65.497.965 54.896c1.12-15.582 12.878-23.19 20.405-32.983C26.263 15.541 29.68 8.951 32.764.01c.226-.047.25.105.265.265zm.001 37.737c-11.449-.03-20.016 9.368-19.877 20.055.094 7.113 3.957 13.606 9.276 16.89 7.504 4.63 17.942 3.443 24.115-2.643 3.258-3.21 5.47-7.69 6.095-14.247-8.24 0-10.12-.121-19.695-.121 0-6.51.086-13.428.086-19.934zm-8.61 6.943a3.917 3.917 0 013.925 3.91 3.917 3.917 0 01-3.926 3.908 3.917 3.917 0 01-3.925-3.909 3.917 3.917 0 013.925-3.909zM42.866 44a4 4 0 100 8 4 4 0 000-8z" fill="#19B4B2" fill-rule="nonzero"/><path d="M43 69c0-3.314-4.03-6-9-6s-9 2.686-9 6" stroke="#19B4B2" stroke-width="3"/></g></svg>