<svg xmlns="http://www.w3.org/2000/svg" xmlns:xlink="http://www.w3.org/1999/xlink" width="14" height="14"><defs><path id="a" d="M13.458 7A6.458 6.458 0 11.542 7a6.458 6.458 0 0112.916 0zM7.173 2.677c-1.419 0-2.324.598-3.035 1.66a.313.313 0 00.07.424l.904.685a.312.312 0 00.434-.055c.466-.59.785-.932 1.493-.932.532 0 1.19.342 1.19.858 0 .39-.322.59-.847.885-.613.343-1.424.77-1.424 1.84v.104c0 .172.14.312.313.312h1.458c.173 0 .313-.14.313-.312V8.11c0-.741 2.166-.772 2.166-2.778 0-1.51-1.567-2.656-3.035-2.656zM7 9.135a1.2 1.2 0 00-1.198 1.198A1.2 1.2 0 007 11.531a1.2 1.2 0 001.198-1.198A1.2 1.2 0 007 9.135z"/></defs><use fill="#19B4B2" fill-rule="evenodd" xlink:href="#a"/></svg>