<svg xmlns="http://www.w3.org/2000/svg" viewBox="0 0 40 40"><g fill-rule="evenodd" clip-rule="evenodd" fill="#fff"><path d="M20.1 0c0 4.1 0 8.3-.1 12.5 4.1 0 7.4 3.4 7.4 7.5v.1c3.9 0 6.5.1 11.4.1h1.1c-.6 6.6-2.9 11.1-6.2 14.3-6.1 6.1-16.7 7.3-24.3 2.7C4 33.9.1 27.4 0 20.2-.1 9.4 8.5 0 20.1 0z" fill-opacity=".3"/><path d="M22.1 25.9c0-.9.1-1.7.4-2.2.2-.6.6-1.2 1.2-1.7l2.1-1.9c.9-.8 1.5-1.7 1.9-2.5.4-.8.6-1.7.6-2.7 0-2.3-.7-4-2.2-5.2-1.5-1.2-3.5-1.8-6.2-1.8s-4.8.7-6.2 2-2.3 3-2.3 5.4h6.1c0-.9.3-1.6.7-2.1.4-.5 1-.8 1.7-.8 1.6 0 2.3.9 2.3 2.7 0 .7-.2 1.4-.7 2-.5.6-1.1 1.3-2 2-.9.7-1.5 1.6-1.9 2.6s-.6 2.5-.6 4.2h5.1zm-2.5 8.5c1 0 1.8-.3 2.4-.9.6-.6 1-1.3 1-2.2 0-.9-.3-1.6-1-2.2-.6-.6-1.4-.9-2.4-.9s-1.8.3-2.4.9c-.6.6-1 1.3-1 2.2 0 .9.3 1.6 1 2.2.7.6 1.5.9 2.4.9z"/></g></svg>